<?xml version="1.0" encoding="UTF-8" standalone="no"?>
<!-- Created with Inkscape (http://www.inkscape.org/) -->

<svg
   xmlns:dc="http://purl.org/dc/elements/1.1/"
   xmlns:cc="http://creativecommons.org/ns#"
   xmlns:rdf="http://www.w3.org/1999/02/22-rdf-syntax-ns#"
   xmlns:svg="http://www.w3.org/2000/svg"
   xmlns="http://www.w3.org/2000/svg"
   xmlns:sodipodi="http://sodipodi.sourceforge.net/DTD/sodipodi-0.dtd"
   xmlns:inkscape="http://www.inkscape.org/namespaces/inkscape"
   width="110.06667mm"
   height="20.94845mm"
   viewBox="0 0 389.99999 74.226791"
   id="svg2"
   version="1.1"
   inkscape:version="0.91 r13725"
   sodipodi:docname="source_white.svg">
  <defs
     id="defs4" />
  <sodipodi:namedview
     id="base"
     pagecolor="#ffffff"
     bordercolor="#666666"
     borderopacity="1.0"
     inkscape:pageopacity="0.0"
     inkscape:pageshadow="2"
     inkscape:zoom="4.1011364"
     inkscape:cx="175.85421"
     inkscape:cy="232.88785"
     inkscape:document-units="px"
     inkscape:current-layer="layer1"
     showgrid="false"
     inkscape:window-width="3775"
     inkscape:window-height="2136"
     inkscape:window-x="65"
     inkscape:window-y="24"
     inkscape:window-maximized="1"
     fit-margin-top="0"
     fit-margin-left="0"
     fit-margin-right="0"
     fit-margin-bottom="0" />
  <metadata
     id="metadata7">
    <rdf:RDF>
      <cc:Work
         rdf:about="">
        <dc:format>image/svg+xml</dc:format>
        <dc:type
           rdf:resource="http://purl.org/dc/dcmitype/StillImage" />
        <dc:title></dc:title>
      </cc:Work>
    </rdf:RDF>
  </metadata>
  <g
     inkscape:label="Layer 1"
     inkscape:groupmode="layer"
     id="layer1"
     transform="translate(-53.528683,-335.30898)">
    <g
       id="g3338"
       style="font-family:none;mix-blend-mode:normal;fill:#ffffff;fill-rule:nonzero;stroke:none;stroke-width:1;stroke-linecap:butt;stroke-linejoin:miter;stroke-miterlimit:10;stroke-dasharray:none;stroke-dashoffset:0"
       text-anchor="none"
       font-size="none"
       font-weight="none"
       stroke-miterlimit="10"
       transform="translate(-26.471317,137.42237)">
      <g
         id="g3340"
         style="fill:#ffffff">
        <g
           id="g3342"
           style="fill:#ffffff">
          <g
             id="g3344"
             style="fill:#ffffff">
            <path
               id="path3346"
               d="m 272.78566,218.99214 10.71185,0 c 2.86356,0 6.3782,1.74996 5.2927,5.09078 -1.13719,3.49991 -5.53056,4.45443 -8.39413,4.45443 l -10.71185,0 z m 4.77275,-14.68903 10.71185,0 c 4.45443,0 4.90276,2.86356 4.35139,4.56049 -0.68921,2.12116 -2.72404,3.97717 -7.12545,3.97717 l -10.71185,0 z m 12.77947,-6.36347 c -5.88621,0 -11.77243,0 -17.60562,0 l -12.06111,37.12027 c 5.88621,0 11.7194,0 17.60562,0 7.6892,0 14.7551,-2.65145 17.443,-10.92397 0.75813,-2.33327 0.66628,-6.94679 -3.25134,-8.27252 3.94656,-1.53784 6.22128,-4.29535 7.15171,-7.15891 2.42945,-7.47708 -1.96426,-10.76488 -9.28226,-10.76488 z m 13.76399,37.12027 12.06111,-37.12027 -6.94679,0 -12.06111,37.12027 z m 35.55214,-14.1057 -10.71105,-23.01457 -5.6741,0 -12.06111,37.12027 6.99982,0 8.13263,-25.02967 11.36479,25.0827 0.0172,-0.053 4.34837,0 12.07834,-37.1733 -6.99982,0 z m 38.31721,14.1057 7.63617,0 -4.58999,-37.12027 -7.63617,0 -28.7122,37.12027 7.58314,0 5.45612,-6.99982 19.4086,0 z m -1.54556,-13.52238 -13.78753,0 12.02835,-15.80263 z m 44.8662,13.04512 -7.12413,-12.67392 c 7.51807,-1.43178 11.52267,-6.57559 13.17676,-11.66637 2.08485,-6.4165 -0.63335,-12.24969 -9.3659,-12.30272 -5.88621,0 -11.7552,-0.053 -17.64141,-0.053 l -12.07834,37.1733 6.99982,0 4.03186,-12.40878 6.73468,0 6.78605,12.40878 8.32555,0 z m -5.43258,-30.12045 c 4.4014,0 5.39859,2.96962 4.4337,5.93924 -0.96489,2.96962 -3.83882,5.93924 -8.29325,5.93924 l -10.65882,0 3.85955,-11.87849 z m 26.40657,-6.52256 -8.32555,0 -0.10338,0.31817 7.28658,21.47673 -4.97951,15.32537 6.99982,0 4.97951,-15.32537 21.77329,-21.47673 0.10338,-0.31817 -8.4316,0 -14.8429,15.32537 z"
               inkscape:connector-curvature="0"
               style="fill:#ffffff" />
          </g>
          <path
             id="path3348"
             d="m 269.52271,242.28682 -0.81905,0 c -5.72399,0 -11.89371,4.65668 -13.75355,10.38067 l -2.94533,9.06481 c -1.85984,5.72399 1.2838,10.38067 7.00778,10.38067 l 0.81905,0 c 5.72399,0 11.89371,-4.65668 13.75355,-10.38067 l 2.94533,-9.06481 c 1.85984,-5.72399 -1.2838,-10.38067 -7.00778,-10.38067 z m 1.72314,19.44548 c -1.44074,4.43415 -6.2203,8.04136 -10.65416,8.04136 l -0.81905,0 c -4.43386,0 -6.86931,-3.60721 -5.42857,-8.04136 l 2.94533,-9.06481 c 1.44074,-4.43415 6.2203,-8.04136 10.65416,-8.04136 l 0.81905,0 c 4.43386,0 6.86931,3.60721 5.42857,8.04136 z m 30.7343,-19.37998 c -0.54062,-0.21346 -1.31183,0.10819 -1.72359,0.71758 l -16.42267,24.33258 -0.6104,-24.33258 c -0.0154,-0.60968 -0.57823,-0.93104 -1.25727,-0.71758 -0.67904,0.21346 -1.21722,0.88075 -1.20185,1.49043 l 0.68938,27.48684 c 0.0119,0.46903 0.35222,0.78337 0.84933,0.78337 0.4971,0 1.04186,-0.31405 1.35839,-0.78337 l 18.55141,-27.48684 c 0.41195,-0.60997 0.3076,-1.27697 -0.23273,-1.49043 z m 15.71501,27.42091 -18.07114,0 1.91922,-5.90675 8.45074,0 c 0.47312,0 0.9921,-0.2851 1.31505,-0.72197 0.32295,-0.43686 0.38646,-0.94011 0.16063,-1.27463 l -6.49454,-9.62039 c -0.30834,-0.45675 -1.04903,-0.45675 -1.65418,0 -0.60516,0.45675 -0.84582,1.19743 -0.53748,1.65418 l 5.14677,7.6235 -6.79656,0 c -0.64594,0 -1.33982,0.52371 -1.5497,1.16965 l -2.6793,8.24605 c -0.20988,0.64594 0.14367,1.16965 0.78961,1.16965 l 19.24079,0 c 0.64594,0 1.33982,-0.52371 1.5497,-1.16965 0.20988,-0.64594 -0.14367,-1.16965 -0.78961,-1.16965 z m 10.30535,-27.48684 -20.61513,0 c -0.47312,0 -0.9921,0.2851 -1.31505,0.72197 -0.32295,0.43687 -0.38646,0.94011 -0.16063,1.27463 l 6.49454,9.62039 c 0.15417,0.22837 0.41655,0.34242 0.71598,0.34242 0.29943,0 0.63572,-0.11433 0.93849,-0.34242 0.60516,-0.45675 0.84582,-1.19743 0.53748,-1.65418 l -5.14706,-7.6235 17.7913,0 c 0.64594,0 1.33982,-0.52371 1.5497,-1.16965 0.20988,-0.64594 -0.14367,-1.16965 -0.78961,-1.16965 z m 16.7548,8.6e-4 -10.99503,0 c -0.47312,0 -0.9921,0.2851 -1.31505,0.72197 -0.32295,0.43687 -0.38646,0.94011 -0.16063,1.27463 l 6.49454,9.62039 c 0.30834,0.45675 1.04932,0.45675 1.65389,0 0.60516,-0.45675 0.84582,-1.19743 0.53748,-1.65418 l -5.14648,-7.6235 8.1709,0 c 3.90196,0 6.04496,3.17444 4.77714,7.0764 -1.26782,3.90196 -5.4737,7.0764 -9.37566,7.0764 l -10.99503,0 c -0.4588,0 -0.9627,0.26843 -1.28825,0.68629 -0.32555,0.41786 -0.41227,0.90794 -0.22251,1.25357 l 6.04799,10.99474 c 0.14541,0.26434 0.42521,0.39944 0.75126,0.39944 0.27341,0 0.57866,-0.0953 0.86369,-0.28949 0.62452,-0.42546 0.91374,-1.16439 0.64648,-1.65038 l -4.98112,-9.05487 8.41711,0 c 5.1918,0 10.78814,-4.22391 12.47505,-9.41571 1.68779,-5.1918 -1.16398,-9.41571 -6.35577,-9.41571 z m 23.63682,-8.6e-4 -9.62039,0 c -0.64594,0 -1.33982,0.52371 -1.5497,1.16965 l -2.6793,8.24605 c -0.10081,0.31025 -0.0743,0.60763 0.0736,0.82724 l 6.49454,9.62039 c 0.30834,0.45675 1.04903,0.45675 1.65418,0 0.60516,-0.45675 0.84582,-1.19743 0.53748,-1.65418 l -6.26348,-9.27769 2.14192,-6.59216 8.45074,0 c 4.6599,0 7.21902,3.79084 5.70493,8.45074 l -2.6793,8.24605 c -1.46269,4.5017 -6.19983,8.19254 -10.72091,8.43758 l -6.25401,-9.26453 c -0.30834,-0.45675 -1.04903,-0.45675 -1.65418,0 -0.60516,0.45675 -0.84582,1.19743 -0.53748,1.65418 l 6.49454,9.62039 c 0.14805,0.21931 0.40573,0.34242 0.71598,0.34242 5.94973,0 12.36276,-4.84032 14.29595,-10.79005 l 2.6793,-8.24605 c 1.93289,-5.94973 -1.33471,-10.79005 -7.28444,-10.79005 z m 25.42083,4.3e-4 -0.81905,0 c -5.72399,0 -11.89371,4.65668 -13.75355,10.38067 l -2.94533,9.06481 c -1.85984,5.72399 1.2838,10.38067 7.00778,10.38067 l 0.81905,0 c 5.72399,0 11.89371,-4.65668 13.75355,-10.38067 l 2.94533,-9.06481 c 1.85984,-5.72399 -1.2838,-10.38067 -7.00778,-10.38067 z m 1.72314,19.44548 c -1.44074,4.43415 -6.2203,8.04136 -10.65416,8.04136 l -0.81905,0 c -4.43386,0 -6.86931,-3.60721 -5.42857,-8.04136 l 2.94533,-9.06481 c 1.44074,-4.43415 6.2203,-8.04136 10.65416,-8.04136 l 0.81905,0 c 4.43386,0 6.86931,3.60721 5.42857,8.04136 z m 27.26417,0.17106 c 0.009,-0.0357 0.0187,-0.0711 0.0241,-0.10556 0.006,-0.0383 0.008,-0.0757 0.01,-0.11346 0.002,-0.0357 0.005,-0.0713 0.003,-0.10585 -0.002,-0.0354 -0.008,-0.069 -0.0135,-0.10322 -0.006,-0.0342 -0.0108,-0.0684 -0.0202,-0.10059 -0.009,-0.0304 -0.0217,-0.0591 -0.0343,-0.088 -0.0143,-0.0333 -0.0289,-0.0658 -0.0474,-0.0962 -0.006,-0.01 -0.008,-0.0208 -0.0148,-0.0301 l -6.47914,-9.59759 c -0.30834,-0.45675 -1.04932,-0.45675 -1.65389,0 -0.60525,0.45704 -0.84582,1.19743 -0.53748,1.65418 l 6.21393,9.20429 c -1.89773,4.16221 -6.51753,7.35244 -10.76659,7.35244 -4.6599,0 -7.21902,-3.79084 -5.70493,-8.45074 0.20988,-0.64594 -0.14367,-1.16965 -0.78961,-1.16965 -0.64594,0 -1.33982,0.52371 -1.5497,1.16965 -1.93318,5.94973 1.33471,10.79005 7.28415,10.79005 5.64708,0 11.80873,-4.41222 14.02822,-10.04527 0.005,-0.0132 0.007,-0.0254 0.0113,-0.0383 0.0151,-0.0421 0.0261,-0.0839 0.0369,-0.12603 z m -18.46219,-9.40693 c -0.009,0.0357 -0.0187,0.0711 -0.0241,0.10556 -0.006,0.0383 -0.008,0.0757 -0.01,0.11346 -0.002,0.0357 -0.005,0.0713 -0.003,0.10585 0.002,0.0354 0.008,0.069 0.0135,0.10322 0.006,0.0342 0.0108,0.0684 0.0202,0.10059 0.009,0.0304 0.0217,0.0591 0.0343,0.088 0.0143,0.0333 0.0289,0.0658 0.0474,0.0962 0.006,0.01 0.008,0.0208 0.0148,0.0301 l 6.47914,9.59759 c 0.15417,0.22837 0.41655,0.34242 0.71569,0.34242 0.29914,0 0.63601,-0.11433 0.9382,-0.34242 0.60516,-0.45675 0.84582,-1.19743 0.53748,-1.65418 l -6.21393,-9.20429 c 1.89773,-4.16221 6.51753,-7.35244 10.76659,-7.35244 4.6599,0 7.21902,3.79084 5.70493,8.45074 -0.20988,0.64594 0.14367,1.16965 0.78961,1.16965 0.64594,0 1.33982,-0.52371 1.5497,-1.16965 1.93318,-5.94973 -1.33471,-10.79005 -7.28415,-10.79005 -5.64708,0 -11.80873,4.41222 -14.02822,10.04527 -0.005,0.0132 -0.007,0.0254 -0.0113,0.0383 -0.0148,0.0421 -0.0261,0.0839 -0.0369,0.12603 z m 39.77777,17.2768 -18.07114,0 1.91922,-5.90675 8.45074,0 c 0.47312,0 0.9921,-0.2851 1.31505,-0.72197 0.32295,-0.43686 0.38646,-0.94011 0.16063,-1.27463 l -6.49454,-9.62039 c -0.30834,-0.45675 -1.04903,-0.45675 -1.65418,0 -0.60516,0.45675 -0.84582,1.19743 -0.53748,1.65418 l 5.14677,7.6235 -6.79656,0 c -0.64594,0 -1.33982,0.52371 -1.5497,1.16965 l -2.6793,8.24605 c -0.20988,0.64594 0.14367,1.16965 0.78961,1.16965 l 19.24079,0 c 0.64594,0 1.33982,-0.52371 1.5497,-1.16965 0.20988,-0.64594 -0.14367,-1.16965 -0.78961,-1.16965 z m 10.30536,-27.48684 -20.61513,0 c -0.47312,0 -0.9921,0.2851 -1.31505,0.72197 -0.32295,0.43687 -0.38646,0.94011 -0.16063,1.27463 l 6.49454,9.62039 c 0.15417,0.22837 0.41655,0.34242 0.71598,0.34242 0.29943,0 0.63572,-0.11433 0.93849,-0.34242 0.60516,-0.45675 0.84582,-1.19743 0.53748,-1.65418 l -5.14706,-7.6235 17.7913,0 c 0.64594,0 1.33982,-0.52371 1.5497,-1.16965 0.20988,-0.64594 -0.14367,-1.16965 -0.78961,-1.16965 z"
             inkscape:connector-curvature="0"
             style="fill:#ffffff" />
        </g>
        <g
           id="g3350"
           style="fill:#ffffff">
          <path
             id="path3352"
             d="m 104.76891,197.88661 37.11339,0 -24.76891,74.22678 -37.11339,0 z"
             inkscape:connector-curvature="0"
             style="fill:#ffffff" />
          <path
             id="path3354"
             d="m 155.37808,197.88661 37.11339,0 -24.76891,74.22678 -37.11339,0 z"
             inkscape:connector-curvature="0"
             style="opacity:0.55;fill:#ffffff" />
          <path
             id="path3356"
             d="m 205.98725,197.88661 37.11339,0 -24.76891,74.22678 -37.11339,0 z"
             inkscape:connector-curvature="0"
             style="opacity:0.31429001;fill:#ffffff" />
        </g>
      </g>
    </g>
  </g>
</svg>
