<svg xmlns:mydata="http://www.w3.org/2000/svg" mydata:layoutType="beside-text" mydata:specialFontId="" mydata:id1="024" mydata:id2="491" mydata:companyName="Binary Overdose" mydata:companyTagline="" version="1.1" xmlns="http://www.w3.org/2000/svg" xmlns:xlink="http://www.w3.org/1999/xlink" width="550" height="940"><g fill="#00b08b" fill-rule="nonzero" stroke="none" stroke-width="1" stroke-linecap="butt" stroke-linejoin="miter" stroke-miterlimit="10" stroke-dasharray="" stroke-dashoffset="0" font-family="none" font-weight="none" font-size="none" text-anchor="none" style="mix-blend-mode: normal"><g><g><g><path d="M272.78566,218.99214h10.71185c2.86356,0 6.3782,1.74996 5.2927,5.09078c-1.13719,3.49991 -5.53056,4.45443 -8.39413,4.45443h-10.71185zM277.55841,204.30311h10.71185c4.45443,0 4.90276,2.86356 4.35139,4.56049c-0.68921,2.12116 -2.72404,3.97717 -7.12545,3.97717h-10.71185zM290.33788,197.93964c-5.88621,0 -11.77243,0 -17.60562,0l-12.06111,37.12027c5.88621,0 11.7194,0 17.60562,0c7.6892,0 14.7551,-2.65145 17.443,-10.92397c0.75813,-2.33327 0.66628,-6.94679 -3.25134,-8.27252c3.94656,-1.53784 6.22128,-4.29535 7.15171,-7.15891c2.42945,-7.47708 -1.96426,-10.76488 -9.28226,-10.76488zM304.10187,235.05991l12.06111,-37.12027h-6.94679l-12.06111,37.12027zM339.65401,220.95421l-10.71105,-23.01457h-5.6741l-12.06111,37.12027h6.99982l8.13263,-25.02967l11.36479,25.0827l0.01723,-0.05303h4.34837l12.07834,-37.1733h-6.99982zM377.97122,235.05991h7.63617l-4.58999,-37.12027h-7.63617l-28.7122,37.12027h7.58314l5.45612,-6.99982h19.4086zM376.42566,221.53753h-13.78753l12.02835,-15.80263zM421.29186,234.58265l-7.12413,-12.67392c7.51807,-1.43178 11.52267,-6.57559 13.17676,-11.66637c2.08485,-6.4165 -0.63335,-12.24969 -9.3659,-12.30272c-5.88621,0 -11.7552,-0.05303 -17.64141,-0.05303l-12.07834,37.1733h6.99982l4.03186,-12.40878h6.73468l6.78605,12.40878h8.32555zM415.85928,204.4622c4.4014,0 5.39859,2.96962 4.4337,5.93924c-0.96489,2.96962 -3.83882,5.93924 -8.29325,5.93924h-10.65882l3.85955,-11.87849zM442.26585,197.93964h-8.32555l-0.10338,0.31817l7.28658,21.47673l-4.97951,15.32537h6.99982l4.97951,-15.32537l21.77329,-21.47673l0.10338,-0.31817h-8.4316l-14.8429,15.32537z"></path></g><path d="M269.52271,242.28682h-0.81905c-5.72399,0 -11.89371,4.65668 -13.75355,10.38067l-2.94533,9.06481c-1.85984,5.72399 1.2838,10.38067 7.00778,10.38067h0.81905c5.72399,0 11.89371,-4.65668 13.75355,-10.38067l2.94533,-9.06481c1.85984,-5.72399 -1.2838,-10.38067 -7.00778,-10.38067zM271.24585,261.7323c-1.44074,4.43415 -6.2203,8.04136 -10.65416,8.04136h-0.81905c-4.43386,0 -6.86931,-3.60721 -5.42857,-8.04136l2.94533,-9.06481c1.44074,-4.43415 6.2203,-8.04136 10.65416,-8.04136h0.81905c4.43386,0 6.86931,3.60721 5.42857,8.04136zM301.98015,242.35232c-0.54062,-0.21346 -1.31183,0.10819 -1.72359,0.71758l-16.42267,24.33258l-0.6104,-24.33258c-0.01536,-0.60968 -0.57823,-0.93104 -1.25727,-0.71758c-0.67904,0.21346 -1.21722,0.88075 -1.20185,1.49043l0.68938,27.48684c0.01194,0.46903 0.35222,0.78337 0.84933,0.78337c0.4971,0 1.04186,-0.31405 1.35839,-0.78337l18.55141,-27.48684c0.41195,-0.60997 0.3076,-1.27697 -0.23273,-1.49043zM317.69516,269.77323h-18.07114l1.91922,-5.90675h8.45074c0.47312,0 0.9921,-0.2851 1.31505,-0.72197c0.32295,-0.43686 0.38646,-0.94011 0.16063,-1.27463l-6.49454,-9.62039c-0.30834,-0.45675 -1.04903,-0.45675 -1.65418,0c-0.60516,0.45675 -0.84582,1.19743 -0.53748,1.65418l5.14677,7.6235h-6.79656c-0.64594,0 -1.33982,0.52371 -1.5497,1.16965l-2.6793,8.24605c-0.20988,0.64594 0.14367,1.16965 0.78961,1.16965h19.24079c0.64594,0 1.33982,-0.52371 1.5497,-1.16965c0.20988,-0.64594 -0.14367,-1.16965 -0.78961,-1.16965zM328.00051,242.28639h-20.61513c-0.47312,0 -0.9921,0.2851 -1.31505,0.72197c-0.32295,0.43687 -0.38646,0.94011 -0.16063,1.27463l6.49454,9.62039c0.15417,0.22837 0.41655,0.34242 0.71598,0.34242c0.29943,0 0.63572,-0.11433 0.93849,-0.34242c0.60516,-0.45675 0.84582,-1.19743 0.53748,-1.65418l-5.14706,-7.6235h17.7913c0.64594,0 1.33982,-0.52371 1.5497,-1.16965c0.20988,-0.64594 -0.14367,-1.16965 -0.78961,-1.16965zM344.75531,242.28725h-10.99503c-0.47312,0 -0.9921,0.2851 -1.31505,0.72197c-0.32295,0.43687 -0.38646,0.94011 -0.16063,1.27463l6.49454,9.62039c0.30834,0.45675 1.04932,0.45675 1.65389,0c0.60516,-0.45675 0.84582,-1.19743 0.53748,-1.65418l-5.14648,-7.6235h8.1709c3.90196,0 6.04496,3.17444 4.77714,7.0764c-1.26782,3.90196 -5.4737,7.0764 -9.37566,7.0764h-10.99503c-0.4588,0 -0.9627,0.26843 -1.28825,0.68629c-0.32555,0.41786 -0.41227,0.90794 -0.22251,1.25357l6.04799,10.99474c0.14541,0.26434 0.42521,0.39944 0.75126,0.39944c0.27341,0 0.57866,-0.09533 0.86369,-0.28949c0.62452,-0.42546 0.91374,-1.16439 0.64648,-1.65038l-4.98112,-9.05487h8.41711c5.1918,0 10.78814,-4.22391 12.47505,-9.41571c1.68779,-5.1918 -1.16398,-9.41571 -6.35577,-9.41571zM368.39213,242.28639h-9.62039c-0.64594,0 -1.33982,0.52371 -1.5497,1.16965l-2.6793,8.24605c-0.10081,0.31025 -0.07433,0.60763 0.07363,0.82724l6.49454,9.62039c0.30834,0.45675 1.04903,0.45675 1.65418,0c0.60516,-0.45675 0.84582,-1.19743 0.53748,-1.65418l-6.26348,-9.27769l2.14192,-6.59216h8.45074c4.6599,0 7.21902,3.79084 5.70493,8.45074l-2.6793,8.24605c-1.46269,4.5017 -6.19983,8.19254 -10.72091,8.43758l-6.25401,-9.26453c-0.30834,-0.45675 -1.04903,-0.45675 -1.65418,0c-0.60516,0.45675 -0.84582,1.19743 -0.53748,1.65418l6.49454,9.62039c0.14805,0.21931 0.40573,0.34242 0.71598,0.34242c5.94973,0 12.36276,-4.84032 14.29595,-10.79005l2.6793,-8.24605c1.93289,-5.94973 -1.33471,-10.79005 -7.28444,-10.79005zM393.81296,242.28682h-0.81905c-5.72399,0 -11.89371,4.65668 -13.75355,10.38067l-2.94533,9.06481c-1.85984,5.72399 1.2838,10.38067 7.00778,10.38067h0.81905c5.72399,0 11.89371,-4.65668 13.75355,-10.38067l2.94533,-9.06481c1.85984,-5.72399 -1.2838,-10.38067 -7.00778,-10.38067zM395.5361,261.7323c-1.44074,4.43415 -6.2203,8.04136 -10.65416,8.04136h-0.81905c-4.43386,0 -6.86931,-3.60721 -5.42857,-8.04136l2.94533,-9.06481c1.44074,-4.43415 6.2203,-8.04136 10.65416,-8.04136h0.81905c4.43386,0 6.86931,3.60721 5.42857,8.04136zM422.80027,261.90336c0.00896,-0.03567 0.0187,-0.07106 0.02406,-0.10556c0.00631,-0.03831 0.00794,-0.07573 0.00996,-0.11346c0.00194,-0.03567 0.00476,-0.07135 0.00311,-0.10585c-0.00166,-0.03538 -0.00799,-0.06901 -0.01354,-0.10322c-0.00555,-0.03421 -0.01081,-0.06842 -0.02024,-0.10059c-0.00883,-0.03041 -0.02175,-0.05907 -0.03427,-0.08802c-0.01432,-0.03334 -0.02892,-0.06579 -0.0474,-0.0962c-0.00593,-0.00965 -0.00846,-0.02076 -0.01478,-0.03012l-6.47914,-9.59759c-0.30834,-0.45675 -1.04932,-0.45675 -1.65389,0c-0.60525,0.45704 -0.84582,1.19743 -0.53748,1.65418l6.21393,9.20429c-1.89773,4.16221 -6.51753,7.35244 -10.76659,7.35244c-4.6599,0 -7.21902,-3.79084 -5.70493,-8.45074c0.20988,-0.64594 -0.14367,-1.16965 -0.78961,-1.16965c-0.64594,0 -1.33982,0.52371 -1.5497,1.16965c-1.93318,5.94973 1.33471,10.79005 7.28415,10.79005c5.64708,0 11.80873,-4.41222 14.02822,-10.04527c0.00515,-0.01316 0.00651,-0.02544 0.01128,-0.03831c0.01514,-0.04211 0.0261,-0.08392 0.03686,-0.12603zM404.33808,252.49643c-0.00896,0.03567 -0.0187,0.07106 -0.02406,0.10556c-0.00631,0.03831 -0.00794,0.07573 -0.00996,0.11346c-0.00194,0.03567 -0.00476,0.07135 -0.00311,0.10585c0.00166,0.03538 0.00799,0.06901 0.01354,0.10322c0.00555,0.03421 0.01081,0.06842 0.02024,0.10059c0.00883,0.03041 0.02175,0.05907 0.03427,0.08802c0.01432,0.03334 0.02892,0.06579 0.0474,0.0962c0.00593,0.00965 0.00846,0.02076 0.01478,0.03012l6.47914,9.59759c0.15417,0.22837 0.41655,0.34242 0.71569,0.34242c0.29914,0 0.63601,-0.11433 0.9382,-0.34242c0.60516,-0.45675 0.84582,-1.19743 0.53748,-1.65418l-6.21393,-9.20429c1.89773,-4.16221 6.51753,-7.35244 10.76659,-7.35244c4.6599,0 7.21902,3.79084 5.70493,8.45074c-0.20988,0.64594 0.14367,1.16965 0.78961,1.16965c0.64594,0 1.33982,-0.52371 1.5497,-1.16965c1.93318,-5.94973 -1.33471,-10.79005 -7.28415,-10.79005c-5.64708,0 -11.80873,4.41222 -14.02822,10.04527c-0.00515,0.01316 -0.00651,0.02544 -0.01128,0.03831c-0.01485,0.04211 -0.0261,0.08392 -0.03686,0.12603zM444.11585,269.77323h-18.07114l1.91922,-5.90675h8.45074c0.47312,0 0.9921,-0.2851 1.31505,-0.72197c0.32295,-0.43686 0.38646,-0.94011 0.16063,-1.27463l-6.49454,-9.62039c-0.30834,-0.45675 -1.04903,-0.45675 -1.65418,0c-0.60516,0.45675 -0.84582,1.19743 -0.53748,1.65418l5.14677,7.6235h-6.79656c-0.64594,0 -1.33982,0.52371 -1.5497,1.16965l-2.6793,8.24605c-0.20988,0.64594 0.14367,1.16965 0.78961,1.16965h19.24079c0.64594,0 1.33982,-0.52371 1.5497,-1.16965c0.20988,-0.64594 -0.14367,-1.16965 -0.78961,-1.16965zM454.42121,242.28639h-20.61513c-0.47312,0 -0.9921,0.2851 -1.31505,0.72197c-0.32295,0.43687 -0.38646,0.94011 -0.16063,1.27463l6.49454,9.62039c0.15417,0.22837 0.41655,0.34242 0.71598,0.34242c0.29943,0 0.63572,-0.11433 0.93849,-0.34242c0.60516,-0.45675 0.84582,-1.19743 0.53748,-1.65418l-5.14706,-7.6235h17.7913c0.64594,0 1.33982,-0.52371 1.5497,-1.16965c0.20988,-0.64594 -0.14367,-1.16965 -0.78961,-1.16965z"></path></g><g><path d="M104.76891,197.88661h37.11339l-24.76891,74.22678h-37.11339z"></path><path d="M155.37808,197.88661h37.11339l-24.76891,74.22678h-37.11339z" opacity="0.55"></path><path d="M205.98725,197.88661h37.11339l-24.76891,74.22678h-37.11339z" opacity="0.31429"></path></g></g></g></svg>